<mxfile host="app.diagrams.net" modified="2021-11-22T07:53:12.670Z" agent="5.0 (Windows NT 10.0; Win64; x64) AppleWebKit/537.36 (KHTML, like Gecko) Chrome/96.0.4664.45 Safari/537.36" etag="E81iaoqnv9aaoy27_blh" version="15.8.3" type="github">
  <diagram id="C5RBs43oDa-KdzZeNtuy" name="Page-1">
    <mxGraphModel dx="1865" dy="547" grid="1" gridSize="10" guides="1" tooltips="1" connect="1" arrows="1" fold="1" page="1" pageScale="1" pageWidth="827" pageHeight="1169" math="0" shadow="0">
      <root>
        <mxCell id="WIyWlLk6GJQsqaUBKTNV-0" />
        <mxCell id="WIyWlLk6GJQsqaUBKTNV-1" parent="WIyWlLk6GJQsqaUBKTNV-0" />
        <mxCell id="9nkjdTHVfFh-UZPl7NMA-2" style="edgeStyle=orthogonalEdgeStyle;rounded=0;orthogonalLoop=1;jettySize=auto;html=1;entryX=0.5;entryY=0;entryDx=0;entryDy=0;fontFamily=Lucida Console;fontStyle=1" parent="WIyWlLk6GJQsqaUBKTNV-1" source="9nkjdTHVfFh-UZPl7NMA-0" target="9nkjdTHVfFh-UZPl7NMA-1" edge="1">
          <mxGeometry relative="1" as="geometry" />
        </mxCell>
        <mxCell id="9nkjdTHVfFh-UZPl7NMA-0" value="Bắt đầu" style="ellipse;whiteSpace=wrap;html=1;fontFamily=Lucida Console;fontStyle=1" parent="WIyWlLk6GJQsqaUBKTNV-1" vertex="1">
          <mxGeometry x="300" y="20" width="120" height="70" as="geometry" />
        </mxCell>
        <mxCell id="9nkjdTHVfFh-UZPl7NMA-5" style="edgeStyle=orthogonalEdgeStyle;rounded=0;orthogonalLoop=1;jettySize=auto;html=1;entryX=0.5;entryY=0;entryDx=0;entryDy=0;fontFamily=Lucida Console;fontStyle=1" parent="WIyWlLk6GJQsqaUBKTNV-1" source="9nkjdTHVfFh-UZPl7NMA-1" target="9nkjdTHVfFh-UZPl7NMA-3" edge="1">
          <mxGeometry relative="1" as="geometry" />
        </mxCell>
        <mxCell id="9nkjdTHVfFh-UZPl7NMA-1" value="INPUT&lt;br&gt;Số tiến trình:n&lt;br&gt;P[i].ID, P[i].Arrival, P[i].Burst" style="shape=parallelogram;perimeter=parallelogramPerimeter;whiteSpace=wrap;html=1;fixedSize=1;fontFamily=Lucida Console;fontStyle=1" parent="WIyWlLk6GJQsqaUBKTNV-1" vertex="1">
          <mxGeometry x="262" y="140" width="196" height="60" as="geometry" />
        </mxCell>
        <mxCell id="9nkjdTHVfFh-UZPl7NMA-6" style="edgeStyle=orthogonalEdgeStyle;rounded=0;orthogonalLoop=1;jettySize=auto;html=1;entryX=0.5;entryY=0;entryDx=0;entryDy=0;fontFamily=Lucida Console;fontStyle=1" parent="WIyWlLk6GJQsqaUBKTNV-1" source="9nkjdTHVfFh-UZPl7NMA-3" target="9nkjdTHVfFh-UZPl7NMA-4" edge="1">
          <mxGeometry relative="1" as="geometry" />
        </mxCell>
        <mxCell id="9nkjdTHVfFh-UZPl7NMA-3" value="i=0" style="rounded=0;whiteSpace=wrap;html=1;fontFamily=Lucida Console;fontStyle=1" parent="WIyWlLk6GJQsqaUBKTNV-1" vertex="1">
          <mxGeometry x="320" y="240" width="80" height="40" as="geometry" />
        </mxCell>
        <mxCell id="9nkjdTHVfFh-UZPl7NMA-8" style="edgeStyle=orthogonalEdgeStyle;rounded=0;orthogonalLoop=1;jettySize=auto;html=1;fontFamily=Lucida Console;fontStyle=1" parent="WIyWlLk6GJQsqaUBKTNV-1" source="9nkjdTHVfFh-UZPl7NMA-4" target="9nkjdTHVfFh-UZPl7NMA-7" edge="1">
          <mxGeometry relative="1" as="geometry" />
        </mxCell>
        <mxCell id="9nkjdTHVfFh-UZPl7NMA-17" style="edgeStyle=orthogonalEdgeStyle;rounded=0;orthogonalLoop=1;jettySize=auto;html=1;entryX=0.5;entryY=0;entryDx=0;entryDy=0;fontFamily=Lucida Console;fontStyle=1" parent="WIyWlLk6GJQsqaUBKTNV-1" source="9nkjdTHVfFh-UZPl7NMA-4" target="9nkjdTHVfFh-UZPl7NMA-16" edge="1">
          <mxGeometry relative="1" as="geometry" />
        </mxCell>
        <mxCell id="9nkjdTHVfFh-UZPl7NMA-4" value="i&amp;lt;n" style="rhombus;whiteSpace=wrap;html=1;fontFamily=Lucida Console;fontStyle=1" parent="WIyWlLk6GJQsqaUBKTNV-1" vertex="1">
          <mxGeometry x="320" y="320" width="80" height="50" as="geometry" />
        </mxCell>
        <mxCell id="9nkjdTHVfFh-UZPl7NMA-12" style="edgeStyle=orthogonalEdgeStyle;rounded=0;orthogonalLoop=1;jettySize=auto;html=1;entryX=0.5;entryY=1;entryDx=0;entryDy=0;fontFamily=Lucida Console;fontStyle=1" parent="WIyWlLk6GJQsqaUBKTNV-1" source="9nkjdTHVfFh-UZPl7NMA-7" target="9nkjdTHVfFh-UZPl7NMA-11" edge="1">
          <mxGeometry relative="1" as="geometry" />
        </mxCell>
        <mxCell id="9nkjdTHVfFh-UZPl7NMA-7" value="Sắp xếp theo Arrival" style="rounded=0;whiteSpace=wrap;html=1;fontFamily=Lucida Console;fontStyle=1" parent="WIyWlLk6GJQsqaUBKTNV-1" vertex="1">
          <mxGeometry x="490" y="315" width="120" height="60" as="geometry" />
        </mxCell>
        <mxCell id="9nkjdTHVfFh-UZPl7NMA-9" value="Đúng" style="text;html=1;strokeColor=none;fillColor=none;align=center;verticalAlign=middle;whiteSpace=wrap;rounded=0;fontFamily=Lucida Console;fontStyle=1" parent="WIyWlLk6GJQsqaUBKTNV-1" vertex="1">
          <mxGeometry x="414" y="315" width="60" height="30" as="geometry" />
        </mxCell>
        <mxCell id="9nkjdTHVfFh-UZPl7NMA-13" style="edgeStyle=orthogonalEdgeStyle;rounded=0;orthogonalLoop=1;jettySize=auto;html=1;fontFamily=Lucida Console;fontStyle=1" parent="WIyWlLk6GJQsqaUBKTNV-1" source="9nkjdTHVfFh-UZPl7NMA-11" edge="1">
          <mxGeometry relative="1" as="geometry">
            <mxPoint x="360" y="300" as="targetPoint" />
            <Array as="points">
              <mxPoint x="460" y="250" />
              <mxPoint x="460" y="300" />
            </Array>
          </mxGeometry>
        </mxCell>
        <mxCell id="9nkjdTHVfFh-UZPl7NMA-11" value="i++" style="rounded=0;whiteSpace=wrap;html=1;fontFamily=Lucida Console;fontStyle=1" parent="WIyWlLk6GJQsqaUBKTNV-1" vertex="1">
          <mxGeometry x="515" y="230" width="70" height="40" as="geometry" />
        </mxCell>
        <mxCell id="9nkjdTHVfFh-UZPl7NMA-15" value="Sai" style="text;html=1;strokeColor=none;fillColor=none;align=center;verticalAlign=middle;whiteSpace=wrap;rounded=0;fontFamily=Lucida Console;fontStyle=1" parent="WIyWlLk6GJQsqaUBKTNV-1" vertex="1">
          <mxGeometry x="360" y="375" width="60" height="30" as="geometry" />
        </mxCell>
        <mxCell id="9nkjdTHVfFh-UZPl7NMA-20" style="edgeStyle=orthogonalEdgeStyle;rounded=0;orthogonalLoop=1;jettySize=auto;html=1;fontFamily=Lucida Console;fontStyle=1" parent="WIyWlLk6GJQsqaUBKTNV-1" source="9nkjdTHVfFh-UZPl7NMA-16" target="9nkjdTHVfFh-UZPl7NMA-22" edge="1">
          <mxGeometry relative="1" as="geometry">
            <mxPoint x="360" y="510" as="targetPoint" />
          </mxGeometry>
        </mxCell>
        <mxCell id="9nkjdTHVfFh-UZPl7NMA-16" value="P[i].Doi, P[i].BatDau, P[i].KetThuc, P[i].HoanThanh" style="rounded=0;whiteSpace=wrap;html=1;align=center;fontFamily=Lucida Console;fontStyle=1" parent="WIyWlLk6GJQsqaUBKTNV-1" vertex="1">
          <mxGeometry x="295" y="420" width="130" height="50" as="geometry" />
        </mxCell>
        <mxCell id="9nkjdTHVfFh-UZPl7NMA-28" style="edgeStyle=orthogonalEdgeStyle;rounded=0;orthogonalLoop=1;jettySize=auto;html=1;entryX=0.5;entryY=0;entryDx=0;entryDy=0;fontFamily=Lucida Console;fontStyle=1" parent="WIyWlLk6GJQsqaUBKTNV-1" source="9nkjdTHVfFh-UZPl7NMA-21" target="9nkjdTHVfFh-UZPl7NMA-27" edge="1">
          <mxGeometry relative="1" as="geometry" />
        </mxCell>
        <mxCell id="9nkjdTHVfFh-UZPl7NMA-36" style="edgeStyle=orthogonalEdgeStyle;rounded=0;orthogonalLoop=1;jettySize=auto;html=1;entryX=1;entryY=0.5;entryDx=0;entryDy=0;fontFamily=Lucida Console;fontStyle=1" parent="WIyWlLk6GJQsqaUBKTNV-1" source="9nkjdTHVfFh-UZPl7NMA-21" target="9nkjdTHVfFh-UZPl7NMA-35" edge="1">
          <mxGeometry relative="1" as="geometry" />
        </mxCell>
        <mxCell id="9nkjdTHVfFh-UZPl7NMA-21" value="i&amp;lt;n" style="rhombus;whiteSpace=wrap;html=1;align=center;fontFamily=Lucida Console;fontStyle=1" parent="WIyWlLk6GJQsqaUBKTNV-1" vertex="1">
          <mxGeometry x="307.5" y="585" width="105" height="40" as="geometry" />
        </mxCell>
        <mxCell id="9nkjdTHVfFh-UZPl7NMA-26" style="edgeStyle=orthogonalEdgeStyle;rounded=0;orthogonalLoop=1;jettySize=auto;html=1;entryX=0.5;entryY=0;entryDx=0;entryDy=0;fontFamily=Lucida Console;fontStyle=1" parent="WIyWlLk6GJQsqaUBKTNV-1" source="9nkjdTHVfFh-UZPl7NMA-22" target="9nkjdTHVfFh-UZPl7NMA-21" edge="1">
          <mxGeometry relative="1" as="geometry" />
        </mxCell>
        <mxCell id="9nkjdTHVfFh-UZPl7NMA-22" value="i=0" style="rounded=0;whiteSpace=wrap;html=1;align=center;fontFamily=Lucida Console;fontStyle=1" parent="WIyWlLk6GJQsqaUBKTNV-1" vertex="1">
          <mxGeometry x="326.25" y="520" width="67.5" height="30" as="geometry" />
        </mxCell>
        <mxCell id="9nkjdTHVfFh-UZPl7NMA-30" style="edgeStyle=orthogonalEdgeStyle;rounded=0;orthogonalLoop=1;jettySize=auto;html=1;fontFamily=Lucida Console;fontStyle=1" parent="WIyWlLk6GJQsqaUBKTNV-1" source="9nkjdTHVfFh-UZPl7NMA-27" target="9nkjdTHVfFh-UZPl7NMA-29" edge="1">
          <mxGeometry relative="1" as="geometry" />
        </mxCell>
        <mxCell id="9nkjdTHVfFh-UZPl7NMA-41" style="edgeStyle=orthogonalEdgeStyle;rounded=0;orthogonalLoop=1;jettySize=auto;html=1;entryX=1;entryY=0.5;entryDx=0;entryDy=0;fontFamily=Lucida Console;fontStyle=1" parent="WIyWlLk6GJQsqaUBKTNV-1" source="9nkjdTHVfFh-UZPl7NMA-27" target="9nkjdTHVfFh-UZPl7NMA-40" edge="1">
          <mxGeometry relative="1" as="geometry" />
        </mxCell>
        <mxCell id="9nkjdTHVfFh-UZPl7NMA-27" value="i==0" style="rhombus;whiteSpace=wrap;html=1;align=center;fontFamily=Lucida Console;fontStyle=1" parent="WIyWlLk6GJQsqaUBKTNV-1" vertex="1">
          <mxGeometry x="309.38" y="660" width="101.25" height="50" as="geometry" />
        </mxCell>
        <mxCell id="9nkjdTHVfFh-UZPl7NMA-44" style="edgeStyle=orthogonalEdgeStyle;rounded=0;orthogonalLoop=1;jettySize=auto;html=1;fontFamily=Lucida Console;fontStyle=1" parent="WIyWlLk6GJQsqaUBKTNV-1" source="9nkjdTHVfFh-UZPl7NMA-29" target="9nkjdTHVfFh-UZPl7NMA-43" edge="1">
          <mxGeometry relative="1" as="geometry" />
        </mxCell>
        <mxCell id="9nkjdTHVfFh-UZPl7NMA-29" value="P[i].BatDau = P[i].Arrival;&lt;br&gt;P[i].Doi = P[i].BatDau - P[i].Arrival;&lt;br&gt;P[i].KetThuc = P[i].BatDau + P[i].Burst;&lt;br&gt;P[i].HoanThanh = P[i].Doi + P[i].Burst;" style="rounded=0;whiteSpace=wrap;html=1;fontFamily=Lucida Console;fontStyle=1" parent="WIyWlLk6GJQsqaUBKTNV-1" vertex="1">
          <mxGeometry x="490" y="645" width="279.99" height="80" as="geometry" />
        </mxCell>
        <mxCell id="9nkjdTHVfFh-UZPl7NMA-33" value="Đúng" style="text;html=1;strokeColor=none;fillColor=none;align=center;verticalAlign=middle;whiteSpace=wrap;rounded=0;fontFamily=Lucida Console;fontStyle=1" parent="WIyWlLk6GJQsqaUBKTNV-1" vertex="1">
          <mxGeometry x="370" y="625" width="60" height="30" as="geometry" />
        </mxCell>
        <mxCell id="9nkjdTHVfFh-UZPl7NMA-34" value="Đúng" style="text;html=1;strokeColor=none;fillColor=none;align=center;verticalAlign=middle;whiteSpace=wrap;rounded=0;fontFamily=Lucida Console;fontStyle=1" parent="WIyWlLk6GJQsqaUBKTNV-1" vertex="1">
          <mxGeometry x="420" y="695" width="60" height="30" as="geometry" />
        </mxCell>
        <mxCell id="9nkjdTHVfFh-UZPl7NMA-39" style="edgeStyle=orthogonalEdgeStyle;rounded=0;orthogonalLoop=1;jettySize=auto;html=1;entryX=1;entryY=0.5;entryDx=0;entryDy=0;fontFamily=Lucida Console;fontStyle=1" parent="WIyWlLk6GJQsqaUBKTNV-1" source="9nkjdTHVfFh-UZPl7NMA-35" target="9nkjdTHVfFh-UZPl7NMA-38" edge="1">
          <mxGeometry relative="1" as="geometry" />
        </mxCell>
        <mxCell id="9nkjdTHVfFh-UZPl7NMA-35" value="OUTPUT" style="shape=parallelogram;perimeter=parallelogramPerimeter;whiteSpace=wrap;html=1;fixedSize=1;fontFamily=Lucida Console;fontStyle=1" parent="WIyWlLk6GJQsqaUBKTNV-1" vertex="1">
          <mxGeometry x="30" y="575" width="120" height="60" as="geometry" />
        </mxCell>
        <mxCell id="9nkjdTHVfFh-UZPl7NMA-37" value="Sai" style="text;html=1;strokeColor=none;fillColor=none;align=center;verticalAlign=middle;whiteSpace=wrap;rounded=0;fontFamily=Lucida Console;fontStyle=1" parent="WIyWlLk6GJQsqaUBKTNV-1" vertex="1">
          <mxGeometry x="202" y="570" width="60" height="30" as="geometry" />
        </mxCell>
        <mxCell id="9nkjdTHVfFh-UZPl7NMA-38" value="Kết thúc" style="ellipse;whiteSpace=wrap;html=1;fontFamily=Lucida Console;fontStyle=1" parent="WIyWlLk6GJQsqaUBKTNV-1" vertex="1">
          <mxGeometry x="-180" y="565" width="120" height="80" as="geometry" />
        </mxCell>
        <mxCell id="9nkjdTHVfFh-UZPl7NMA-47" style="edgeStyle=orthogonalEdgeStyle;rounded=0;orthogonalLoop=1;jettySize=auto;html=1;entryX=0.5;entryY=0;entryDx=0;entryDy=0;fontFamily=Lucida Console;fontStyle=1" parent="WIyWlLk6GJQsqaUBKTNV-1" source="9nkjdTHVfFh-UZPl7NMA-40" target="9nkjdTHVfFh-UZPl7NMA-46" edge="1">
          <mxGeometry relative="1" as="geometry" />
        </mxCell>
        <mxCell id="9nkjdTHVfFh-UZPl7NMA-40" value="h=k=i" style="rounded=0;whiteSpace=wrap;html=1;fontFamily=Lucida Console;fontStyle=1" parent="WIyWlLk6GJQsqaUBKTNV-1" vertex="1">
          <mxGeometry x="10" y="662.5" width="90" height="45" as="geometry" />
        </mxCell>
        <mxCell id="9nkjdTHVfFh-UZPl7NMA-42" value="Sai" style="text;html=1;strokeColor=none;fillColor=none;align=center;verticalAlign=middle;whiteSpace=wrap;rounded=0;fontFamily=Lucida Console;fontStyle=1" parent="WIyWlLk6GJQsqaUBKTNV-1" vertex="1">
          <mxGeometry x="230" y="655" width="60" height="30" as="geometry" />
        </mxCell>
        <mxCell id="9nkjdTHVfFh-UZPl7NMA-45" style="edgeStyle=orthogonalEdgeStyle;rounded=0;orthogonalLoop=1;jettySize=auto;html=1;entryX=1;entryY=0.5;entryDx=0;entryDy=0;fontFamily=Lucida Console;fontStyle=1" parent="WIyWlLk6GJQsqaUBKTNV-1" source="9nkjdTHVfFh-UZPl7NMA-43" target="9nkjdTHVfFh-UZPl7NMA-21" edge="1">
          <mxGeometry relative="1" as="geometry">
            <Array as="points">
              <mxPoint x="600" y="605" />
            </Array>
          </mxGeometry>
        </mxCell>
        <mxCell id="9nkjdTHVfFh-UZPl7NMA-43" value="i++" style="rounded=0;whiteSpace=wrap;html=1;fontFamily=Lucida Console;fontStyle=1" parent="WIyWlLk6GJQsqaUBKTNV-1" vertex="1">
          <mxGeometry x="589.99" y="585" width="80" height="40" as="geometry" />
        </mxCell>
        <mxCell id="9nkjdTHVfFh-UZPl7NMA-49" style="edgeStyle=orthogonalEdgeStyle;rounded=0;orthogonalLoop=1;jettySize=auto;html=1;entryX=0.5;entryY=0;entryDx=0;entryDy=0;fontFamily=Lucida Console;fontStyle=1" parent="WIyWlLk6GJQsqaUBKTNV-1" source="9nkjdTHVfFh-UZPl7NMA-46" target="9nkjdTHVfFh-UZPl7NMA-48" edge="1">
          <mxGeometry relative="1" as="geometry" />
        </mxCell>
        <mxCell id="9nkjdTHVfFh-UZPl7NMA-57" style="edgeStyle=orthogonalEdgeStyle;rounded=0;orthogonalLoop=1;jettySize=auto;html=1;fontFamily=Lucida Console;fontStyle=1" parent="WIyWlLk6GJQsqaUBKTNV-1" source="9nkjdTHVfFh-UZPl7NMA-46" target="9nkjdTHVfFh-UZPl7NMA-64" edge="1">
          <mxGeometry relative="1" as="geometry">
            <mxPoint x="290" y="793" as="targetPoint" />
            <Array as="points">
              <mxPoint x="275" y="793" />
            </Array>
          </mxGeometry>
        </mxCell>
        <mxCell id="9nkjdTHVfFh-UZPl7NMA-46" value="P[k].Arrival &amp;lt;=P[i-1].KetThuc" style="rhombus;whiteSpace=wrap;html=1;fontFamily=Lucida Console;fontStyle=1" parent="WIyWlLk6GJQsqaUBKTNV-1" vertex="1">
          <mxGeometry x="-55" y="755" width="220" height="75" as="geometry" />
        </mxCell>
        <mxCell id="9nkjdTHVfFh-UZPl7NMA-51" style="edgeStyle=orthogonalEdgeStyle;rounded=0;orthogonalLoop=1;jettySize=auto;html=1;entryX=0.5;entryY=0;entryDx=0;entryDy=0;fontFamily=Lucida Console;fontStyle=1" parent="WIyWlLk6GJQsqaUBKTNV-1" source="9nkjdTHVfFh-UZPl7NMA-48" target="9nkjdTHVfFh-UZPl7NMA-50" edge="1">
          <mxGeometry relative="1" as="geometry" />
        </mxCell>
        <mxCell id="9nkjdTHVfFh-UZPl7NMA-48" value="k++" style="rounded=0;whiteSpace=wrap;html=1;fontFamily=Lucida Console;fontStyle=1" parent="WIyWlLk6GJQsqaUBKTNV-1" vertex="1">
          <mxGeometry x="12.5" y="870" width="85" height="40" as="geometry" />
        </mxCell>
        <mxCell id="9nkjdTHVfFh-UZPl7NMA-53" style="edgeStyle=orthogonalEdgeStyle;rounded=0;orthogonalLoop=1;jettySize=auto;html=1;fontFamily=Lucida Console;fontStyle=1" parent="WIyWlLk6GJQsqaUBKTNV-1" source="9nkjdTHVfFh-UZPl7NMA-50" edge="1">
          <mxGeometry relative="1" as="geometry">
            <mxPoint x="55" y="730" as="targetPoint" />
            <Array as="points">
              <mxPoint x="-180" y="975" />
            </Array>
          </mxGeometry>
        </mxCell>
        <mxCell id="9nkjdTHVfFh-UZPl7NMA-58" style="edgeStyle=orthogonalEdgeStyle;rounded=0;orthogonalLoop=1;jettySize=auto;html=1;entryX=0;entryY=0.5;entryDx=0;entryDy=0;fontFamily=Lucida Console;fontStyle=1" parent="WIyWlLk6GJQsqaUBKTNV-1" source="9nkjdTHVfFh-UZPl7NMA-50" target="9nkjdTHVfFh-UZPl7NMA-56" edge="1">
          <mxGeometry relative="1" as="geometry" />
        </mxCell>
        <mxCell id="9nkjdTHVfFh-UZPl7NMA-50" value="k&amp;lt;n" style="rhombus;whiteSpace=wrap;html=1;fontFamily=Lucida Console;fontStyle=1" parent="WIyWlLk6GJQsqaUBKTNV-1" vertex="1">
          <mxGeometry x="15" y="950" width="80" height="50" as="geometry" />
        </mxCell>
        <mxCell id="9nkjdTHVfFh-UZPl7NMA-54" value="Đúng" style="text;html=1;strokeColor=none;fillColor=none;align=center;verticalAlign=middle;whiteSpace=wrap;rounded=0;fontFamily=Lucida Console;fontStyle=1" parent="WIyWlLk6GJQsqaUBKTNV-1" vertex="1">
          <mxGeometry x="-90" y="940" width="60" height="30" as="geometry" />
        </mxCell>
        <mxCell id="9nkjdTHVfFh-UZPl7NMA-55" value="Đúng" style="text;html=1;strokeColor=none;fillColor=none;align=center;verticalAlign=middle;whiteSpace=wrap;rounded=0;fontFamily=Lucida Console;fontStyle=1" parent="WIyWlLk6GJQsqaUBKTNV-1" vertex="1">
          <mxGeometry x="70" y="830" width="60" height="30" as="geometry" />
        </mxCell>
        <mxCell id="9nkjdTHVfFh-UZPl7NMA-70" style="edgeStyle=orthogonalEdgeStyle;rounded=0;orthogonalLoop=1;jettySize=auto;html=1;entryX=0;entryY=0.5;entryDx=0;entryDy=0;fontFamily=Lucida Console;fontStyle=1" parent="WIyWlLk6GJQsqaUBKTNV-1" source="9nkjdTHVfFh-UZPl7NMA-56" target="9nkjdTHVfFh-UZPl7NMA-69" edge="1">
          <mxGeometry relative="1" as="geometry" />
        </mxCell>
        <mxCell id="9nkjdTHVfFh-UZPl7NMA-56" value="Sắp xếp tiến trình từ P[h] đến P[k-1] theo BustTime" style="rounded=0;whiteSpace=wrap;html=1;fontFamily=Lucida Console;fontStyle=1" parent="WIyWlLk6GJQsqaUBKTNV-1" vertex="1">
          <mxGeometry x="180" y="945" width="210" height="60" as="geometry" />
        </mxCell>
        <mxCell id="9nkjdTHVfFh-UZPl7NMA-59" value="Sai" style="text;html=1;strokeColor=none;fillColor=none;align=center;verticalAlign=middle;whiteSpace=wrap;rounded=0;fontFamily=Lucida Console;fontStyle=1" parent="WIyWlLk6GJQsqaUBKTNV-1" vertex="1">
          <mxGeometry x="110" y="940" width="60" height="30" as="geometry" />
        </mxCell>
        <mxCell id="9nkjdTHVfFh-UZPl7NMA-60" value="Sai" style="text;html=1;strokeColor=none;fillColor=none;align=center;verticalAlign=middle;whiteSpace=wrap;rounded=0;fontFamily=Lucida Console;fontStyle=1" parent="WIyWlLk6GJQsqaUBKTNV-1" vertex="1">
          <mxGeometry y="1010" width="60" height="30" as="geometry" />
        </mxCell>
        <mxCell id="9nkjdTHVfFh-UZPl7NMA-63" value="Sai" style="text;html=1;strokeColor=none;fillColor=none;align=center;verticalAlign=middle;whiteSpace=wrap;rounded=0;fontFamily=Lucida Console;fontStyle=1" parent="WIyWlLk6GJQsqaUBKTNV-1" vertex="1">
          <mxGeometry x="180" y="762.5" width="60" height="30" as="geometry" />
        </mxCell>
        <mxCell id="9nkjdTHVfFh-UZPl7NMA-65" style="edgeStyle=orthogonalEdgeStyle;rounded=0;orthogonalLoop=1;jettySize=auto;html=1;entryX=0.5;entryY=1;entryDx=0;entryDy=0;fontFamily=Lucida Console;fontStyle=1" parent="WIyWlLk6GJQsqaUBKTNV-1" source="9nkjdTHVfFh-UZPl7NMA-64" target="9nkjdTHVfFh-UZPl7NMA-29" edge="1">
          <mxGeometry relative="1" as="geometry" />
        </mxCell>
        <mxCell id="9nkjdTHVfFh-UZPl7NMA-67" style="edgeStyle=orthogonalEdgeStyle;rounded=0;orthogonalLoop=1;jettySize=auto;html=1;entryX=0.75;entryY=0;entryDx=0;entryDy=0;fontFamily=Lucida Console;fontStyle=1" parent="WIyWlLk6GJQsqaUBKTNV-1" source="9nkjdTHVfFh-UZPl7NMA-64" target="9nkjdTHVfFh-UZPl7NMA-56" edge="1">
          <mxGeometry relative="1" as="geometry" />
        </mxCell>
        <mxCell id="9nkjdTHVfFh-UZPl7NMA-64" value="i==k" style="rhombus;whiteSpace=wrap;html=1;fontFamily=Lucida Console;fontStyle=1" parent="WIyWlLk6GJQsqaUBKTNV-1" vertex="1">
          <mxGeometry x="280" y="762.5" width="80" height="60" as="geometry" />
        </mxCell>
        <mxCell id="9nkjdTHVfFh-UZPl7NMA-66" value="Đúng" style="text;html=1;strokeColor=none;fillColor=none;align=center;verticalAlign=middle;whiteSpace=wrap;rounded=0;fontFamily=Lucida Console;fontStyle=1" parent="WIyWlLk6GJQsqaUBKTNV-1" vertex="1">
          <mxGeometry x="430" y="755" width="60" height="30" as="geometry" />
        </mxCell>
        <mxCell id="9nkjdTHVfFh-UZPl7NMA-68" value="Sai" style="text;html=1;strokeColor=none;fillColor=none;align=center;verticalAlign=middle;whiteSpace=wrap;rounded=0;fontFamily=Lucida Console;fontStyle=1" parent="WIyWlLk6GJQsqaUBKTNV-1" vertex="1">
          <mxGeometry x="266.25" y="860" width="60" height="30" as="geometry" />
        </mxCell>
        <mxCell id="9nkjdTHVfFh-UZPl7NMA-71" style="edgeStyle=orthogonalEdgeStyle;rounded=0;orthogonalLoop=1;jettySize=auto;html=1;entryX=1;entryY=0.5;entryDx=0;entryDy=0;fontFamily=Lucida Console;fontStyle=1" parent="WIyWlLk6GJQsqaUBKTNV-1" source="9nkjdTHVfFh-UZPl7NMA-69" target="9nkjdTHVfFh-UZPl7NMA-43" edge="1">
          <mxGeometry relative="1" as="geometry">
            <Array as="points">
              <mxPoint x="820" y="975" />
              <mxPoint x="820" y="605" />
            </Array>
          </mxGeometry>
        </mxCell>
        <mxCell id="9nkjdTHVfFh-UZPl7NMA-69" value="P[i].BatDau = P[i-1].KetThuc;&lt;br&gt;P[i].Doi = P[i].BatDau - P[i].Arrival;&lt;br&gt;P[i].KetThuc = P[i].BatDau + P[i].Burst;&lt;br&gt;P[i].HoanThanh = P[i].Doi + P[i].Burst;" style="rounded=0;whiteSpace=wrap;html=1;fontFamily=Lucida Console;fontStyle=1" parent="WIyWlLk6GJQsqaUBKTNV-1" vertex="1">
          <mxGeometry x="480" y="935" width="279.99" height="80" as="geometry" />
        </mxCell>
        <mxCell id="h-JacZre5-qrXXMjsVNL-1" value="n=5&lt;br&gt;1&amp;nbsp; 0&amp;nbsp; 5&lt;br&gt;2&amp;nbsp; 7&amp;nbsp; 3&lt;br&gt;3&amp;nbsp; 6&amp;nbsp; &amp;nbsp;4&lt;br&gt;4&amp;nbsp; 9&amp;nbsp; 8&lt;br&gt;5&amp;nbsp; 8&amp;nbsp; 2&amp;nbsp;" style="text;html=1;strokeColor=none;fillColor=none;align=center;verticalAlign=middle;whiteSpace=wrap;rounded=0;fontFamily=Lucida Console;fontStyle=1" parent="WIyWlLk6GJQsqaUBKTNV-1" vertex="1">
          <mxGeometry x="120" y="90" width="120" height="130" as="geometry" />
        </mxCell>
        <mxCell id="h-JacZre5-qrXXMjsVNL-2" value="n=5&lt;br&gt;1&amp;nbsp; 0&amp;nbsp; 5&lt;br&gt;3&amp;nbsp; 6&amp;nbsp; 4&lt;br&gt;2&amp;nbsp; 7&amp;nbsp; 3&lt;br&gt;5&amp;nbsp; 8&amp;nbsp; 2&lt;br&gt;4&amp;nbsp; 9&amp;nbsp; 8" style="text;html=1;strokeColor=none;fillColor=none;align=center;verticalAlign=middle;whiteSpace=wrap;rounded=0;fontFamily=Lucida Console;fontStyle=1" parent="WIyWlLk6GJQsqaUBKTNV-1" vertex="1">
          <mxGeometry x="620" y="300" width="120" height="130" as="geometry" />
        </mxCell>
        <mxCell id="h-JacZre5-qrXXMjsVNL-4" value="P1&amp;nbsp;&lt;br&gt;BatDau = 0&lt;br&gt;Doi&amp;nbsp; = 0 - 0 =0;&lt;br&gt;KetThuc = 0 + 5 = 5&lt;br&gt;Hoan Thanh = 0 +5 =5" style="text;html=1;strokeColor=none;fillColor=none;align=center;verticalAlign=middle;whiteSpace=wrap;rounded=0;fontFamily=Lucida Console;fontStyle=1" parent="WIyWlLk6GJQsqaUBKTNV-1" vertex="1">
          <mxGeometry x="850" y="566.25" width="150" height="207.5" as="geometry" />
        </mxCell>
        <mxCell id="h-JacZre5-qrXXMjsVNL-5" value="h = k =1&lt;br&gt;" style="text;html=1;strokeColor=none;fillColor=none;align=center;verticalAlign=middle;whiteSpace=wrap;rounded=0;fontFamily=Lucida Console;fontStyle=1" parent="WIyWlLk6GJQsqaUBKTNV-1" vertex="1">
          <mxGeometry x="880" y="785" width="60" height="30" as="geometry" />
        </mxCell>
        <mxCell id="h-JacZre5-qrXXMjsVNL-7" value="n=5&lt;br&gt;1&amp;nbsp; 0&amp;nbsp; 5&lt;br&gt;3&amp;nbsp; 6&amp;nbsp; 4&lt;br&gt;2&amp;nbsp; 7&amp;nbsp; 3&lt;br&gt;5&amp;nbsp; 8&amp;nbsp; 2&lt;br&gt;4&amp;nbsp; 9&amp;nbsp; 8" style="text;html=1;strokeColor=none;fillColor=none;align=center;verticalAlign=middle;whiteSpace=wrap;rounded=0;fontFamily=Lucida Console;fontStyle=1" parent="WIyWlLk6GJQsqaUBKTNV-1" vertex="1">
          <mxGeometry x="1057.5" y="605" width="120" height="130" as="geometry" />
        </mxCell>
        <mxCell id="h-JacZre5-qrXXMjsVNL-8" value="P3&lt;br&gt;BatDau = 6&lt;br&gt;Doi&amp;nbsp; = 6 - 6= 0;&lt;br&gt;KetThuc = 6+ 4 =10;&lt;br&gt;Hoan Thanh = 0 + 4 =4;" style="text;html=1;strokeColor=none;fillColor=none;align=center;verticalAlign=middle;whiteSpace=wrap;rounded=0;fontFamily=Lucida Console;fontStyle=1" parent="WIyWlLk6GJQsqaUBKTNV-1" vertex="1">
          <mxGeometry x="840" y="755" width="150" height="207.5" as="geometry" />
        </mxCell>
        <mxCell id="h-JacZre5-qrXXMjsVNL-9" value="i = 2&lt;br&gt;h = k =2&lt;br&gt;k = 5&lt;br&gt;P[2] đến P[4]&lt;br&gt;Sắp xếp P2, P5,P4 theo Burst Time" style="text;html=1;strokeColor=none;fillColor=none;align=center;verticalAlign=middle;whiteSpace=wrap;rounded=0;fontFamily=Lucida Console;fontStyle=1" parent="WIyWlLk6GJQsqaUBKTNV-1" vertex="1">
          <mxGeometry x="870" y="945" width="155" height="130" as="geometry" />
        </mxCell>
        <mxCell id="h-JacZre5-qrXXMjsVNL-10" value="n=5&lt;br&gt;1&amp;nbsp; 0&amp;nbsp; 5&lt;br&gt;3&amp;nbsp; 6&amp;nbsp; 4&lt;br&gt;&lt;br&gt;5&amp;nbsp; 8&amp;nbsp; 2&lt;br&gt;2&amp;nbsp; 7&amp;nbsp; 3&lt;br&gt;4&amp;nbsp; 9&amp;nbsp; 8" style="text;html=1;strokeColor=none;fillColor=none;align=center;verticalAlign=middle;whiteSpace=wrap;rounded=0;fontFamily=Lucida Console;fontStyle=1" parent="WIyWlLk6GJQsqaUBKTNV-1" vertex="1">
          <mxGeometry x="1040" y="930" width="120" height="130" as="geometry" />
        </mxCell>
        <mxCell id="h-JacZre5-qrXXMjsVNL-11" value="P5&lt;br&gt;BatDau = 10&lt;br&gt;Doi = 10 - 8 = 2;&lt;br&gt;KetThuc = 10 + 2 =12;&lt;br&gt;HoanThanh = 2+2 = 4;" style="text;html=1;strokeColor=none;fillColor=none;align=center;verticalAlign=middle;whiteSpace=wrap;rounded=0;fontFamily=Lucida Console;fontStyle=1" parent="WIyWlLk6GJQsqaUBKTNV-1" vertex="1">
          <mxGeometry x="850" y="1060" width="207.5" height="110" as="geometry" />
        </mxCell>
      </root>
    </mxGraphModel>
  </diagram>
</mxfile>
